<svg xmlns="http://www.w3.org/2000/svg" xmlns:xlink="http://www.w3.org/1999/xlink" width="375" viewBox="0 0 375 375" height="375" version="1.0"><defs><clipPath id="a"><path d="M 37.5 37.5 L 338 37.5 L 338 337.5 L 37.5 337.5 Z M 37.5 37.5"/></clipPath><clipPath id="b"><path d="M 139.675781 42.683594 C 113.828125 42.683594 89.527344 52.75 71.242188 71.019531 C 52.96875 89.300781 42.898438 113.597656 42.898438 139.441406 C 42.898438 165.289062 52.964844 189.585938 71.242188 207.859375 C 89.527344 226.136719 113.828125 236.195312 139.675781 236.195312 C 165.53125 236.195312 189.828125 226.136719 208.105469 207.859375 C 226.390625 189.585938 236.449219 165.289062 236.449219 139.441406 C 236.449219 113.59375 226.390625 89.300781 208.105469 71.019531 C 189.832031 52.746094 165.53125 42.683594 139.675781 42.683594 Z M 117.703125 104.007812 L 102.535156 97.835938 C 101.125 99.394531 99.089844 100.371094 96.832031 100.371094 C 92.589844 100.371094 89.136719 96.917969 89.136719 92.679688 C 89.136719 88.4375 92.589844 84.984375 96.832031 84.984375 C 101.074219 84.984375 104.527344 88.4375 104.527344 92.679688 C 104.527344 92.777344 104.523438 92.871094 104.519531 92.96875 L 119.691406 99.140625 C 121.097656 97.582031 123.132812 96.605469 125.394531 96.605469 C 129.636719 96.605469 133.089844 100.058594 133.089844 104.296875 C 133.089844 105.210938 132.929688 106.082031 132.636719 106.894531 L 150.074219 121.371094 C 151.214844 120.703125 152.539062 120.316406 153.957031 120.316406 C 158.203125 120.316406 161.652344 123.769531 161.652344 128.011719 C 161.652344 128.839844 161.519531 129.636719 161.277344 130.382812 L 178.4375 143.753906 C 179.621094 143.007812 181.023438 142.578125 182.523438 142.578125 C 186.765625 142.578125 190.222656 146.023438 190.222656 150.273438 C 190.222656 154.511719 186.765625 157.964844 182.527344 157.964844 C 178.277344 157.964844 174.828125 154.511719 174.828125 150.273438 C 174.828125 149.445312 174.960938 148.644531 175.203125 147.898438 L 158.042969 134.527344 C 156.859375 135.273438 155.457031 135.707031 153.957031 135.707031 C 149.714844 135.707031 146.265625 132.253906 146.265625 128.011719 C 146.265625 127.101562 146.425781 126.230469 146.714844 125.421875 L 129.273438 110.941406 C 128.132812 111.609375 126.808594 111.992188 125.394531 111.992188 C 121.152344 111.992188 117.699219 108.539062 117.699219 104.296875 C 117.699219 104.203125 117.699219 104.105469 117.703125 104.007812 Z M 155.851562 129.535156 L 155.875 129.503906 L 155.894531 129.480469 C 156.203125 129.070312 156.386719 128.5625 156.386719 128.011719 C 156.386719 126.675781 155.300781 125.578125 153.957031 125.578125 C 152.621094 125.578125 151.523438 126.675781 151.523438 128.011719 C 151.523438 129.355469 152.621094 130.445312 153.957031 130.445312 C 154.722656 130.445312 155.40625 130.089844 155.851562 129.535156 Z M 182.527344 147.839844 C 181.183594 147.839844 180.09375 148.929688 180.09375 150.273438 C 180.09375 151.605469 181.183594 152.703125 182.523438 152.703125 C 183.863281 152.703125 184.957031 151.609375 184.957031 150.273438 C 184.957031 148.929688 183.859375 147.839844 182.527344 147.839844 Z M 125.394531 101.867188 C 124.050781 101.867188 122.960938 102.957031 122.960938 104.296875 C 122.960938 105.640625 124.050781 106.730469 125.394531 106.730469 C 126.738281 106.730469 127.828125 105.640625 127.828125 104.296875 C 127.828125 102.957031 126.738281 101.867188 125.394531 101.867188 Z M 96.832031 90.246094 C 95.488281 90.246094 94.398438 91.335938 94.398438 92.679688 C 94.398438 94.019531 95.488281 95.109375 96.832031 95.109375 C 98.175781 95.109375 99.265625 94.019531 99.265625 92.679688 C 99.265625 91.335938 98.175781 90.246094 96.832031 90.246094 Z M 176.414062 188.640625 L 188.636719 188.640625 L 188.636719 165.488281 L 176.414062 165.488281 Z M 191.269531 193.902344 L 173.78125 193.902344 C 172.328125 193.902344 171.148438 192.722656 171.148438 191.269531 L 171.148438 162.859375 C 171.148438 161.40625 172.328125 160.226562 173.78125 160.226562 L 191.269531 160.226562 C 192.722656 160.226562 193.902344 161.40625 193.902344 162.859375 L 193.902344 191.269531 C 193.902344 192.722656 192.722656 193.902344 191.269531 193.902344 Z M 147.84375 188.34375 L 160.070312 188.34375 L 160.070312 144.339844 L 147.84375 144.339844 Z M 162.699219 193.605469 L 145.210938 193.605469 C 143.757812 193.605469 142.582031 192.429688 142.582031 190.976562 L 142.582031 141.707031 C 142.582031 140.253906 143.757812 139.078125 145.210938 139.078125 L 162.699219 139.074219 C 164.160156 139.074219 165.332031 140.253906 165.332031 141.707031 L 165.332031 190.976562 C 165.332031 192.429688 164.160156 193.605469 162.699219 193.605469 Z M 119.28125 188.640625 L 131.507812 188.640625 L 131.507812 123.667969 L 119.28125 123.667969 Z M 134.136719 193.902344 L 116.648438 193.902344 C 115.195312 193.902344 114.019531 192.722656 114.019531 191.269531 L 114.019531 121.035156 C 114.019531 119.582031 115.195312 118.40625 116.648438 118.40625 L 134.136719 118.40625 C 135.589844 118.40625 136.769531 119.585938 136.769531 121.035156 L 136.769531 191.269531 C 136.769531 192.722656 135.589844 193.902344 134.136719 193.902344 Z M 90.71875 188.203125 L 102.945312 188.203125 L 102.945312 109.828125 L 90.71875 109.828125 Z M 105.574219 193.460938 L 88.085938 193.460938 C 86.632812 193.460938 85.457031 192.285156 85.457031 190.832031 L 85.457031 107.195312 C 85.457031 105.742188 86.632812 104.566406 88.085938 104.566406 L 105.574219 104.566406 C 107.027344 104.566406 108.207031 105.746094 108.207031 107.195312 L 108.207031 190.832031 C 108.207031 192.285156 107.027344 193.464844 105.574219 193.460938 Z M 218.617188 222.089844 L 209.945312 213.414062 C 190.902344 231.523438 166.054688 241.464844 139.675781 241.464844 C 112.421875 241.464844 86.800781 230.851562 67.523438 211.578125 C 48.253906 192.3125 37.636719 166.695312 37.636719 139.441406 C 37.636719 112.191406 48.25 86.574219 67.523438 67.300781 C 86.800781 48.035156 112.421875 37.421875 139.675781 37.421875 C 166.933594 37.421875 192.558594 48.035156 211.828125 67.300781 C 231.105469 86.574219 241.71875 112.191406 241.71875 139.441406 C 241.71875 165.816406 231.777344 190.660156 213.664062 209.695312 L 222.339844 218.367188 C 229.898438 212.625 240.761719 213.210938 247.652344 220.101562 L 332.003906 304.4375 C 339.527344 311.957031 339.527344 324.210938 332.003906 331.730469 C 328.242188 335.492188 323.292969 337.378906 318.355469 337.375 C 313.40625 337.375 308.464844 335.492188 304.703125 331.730469 L 220.351562 247.398438 C 216.71875 243.765625 214.71875 238.914062 214.71875 233.75 C 214.71875 229.476562 216.089844 225.417969 218.617188 222.089844 Z M 234.003906 219.71875 C 230.40625 219.71875 226.808594 221.089844 224.074219 223.820312 C 221.4375 226.460938 219.980469 229.988281 219.980469 233.75 C 219.984375 237.511719 221.433594 241.039062 224.074219 243.675781 L 308.425781 328.011719 C 313.898438 333.484375 322.808594 333.484375 328.285156 328.011719 C 333.757812 322.535156 333.757812 313.628906 328.285156 308.15625 L 243.933594 223.820312 C 241.199219 221.085938 237.601562 219.71875 234.003906 219.71875 Z M 139.675781 60.675781 C 119.492188 60.675781 99.3125 68.355469 83.941406 83.71875 C 69.058594 98.605469 60.859375 118.390625 60.859375 139.441406 C 60.863281 160.492188 69.058594 180.28125 83.941406 195.164062 C 98.832031 210.050781 118.621094 218.246094 139.675781 218.246094 C 160.734375 218.246094 180.523438 210.050781 195.40625 195.164062 C 210.300781 180.28125 218.496094 160.492188 218.496094 139.441406 C 218.496094 118.390625 210.300781 98.605469 195.40625 83.71875 C 180.046875 68.355469 159.863281 60.675781 139.675781 60.675781 Z M 139.675781 223.507812 C 117.21875 223.507812 96.105469 214.765625 80.21875 198.882812 C 64.34375 183.007812 55.597656 161.898438 55.597656 139.441406 C 55.597656 116.988281 64.34375 95.878906 80.21875 79.996094 C 113.003906 47.21875 166.34375 47.21875 199.128906 79.996094 C 215.015625 95.878906 223.757812 116.988281 223.757812 139.441406 C 223.757812 161.898438 215.015625 183.007812 199.128906 198.882812 C 183.253906 214.765625 162.136719 223.507812 139.675781 223.507812 Z M 139.675781 223.507812" clip-rule="evenodd"/></clipPath><linearGradient x1="-5.535" gradientTransform="matrix(1.95988 0 0 1.9595 17.723 17.513)" y1="51.25" x2="179.905" gradientUnits="userSpaceOnUse" y2="122.152" xlink:type="simple" xlink:actuate="onLoad" id="c" xlink:show="other"><stop stop-color="#F59E0B" offset="0"/><stop stop-color="#F59E0B" offset=".031"/><stop stop-color="#F49E0D" offset=".035"/><stop stop-color="#F49D0F" offset=".039"/><stop stop-color="#F49D11" offset=".043"/><stop stop-color="#F39D13" offset=".047"/><stop stop-color="#F39C15" offset=".051"/><stop stop-color="#F29C17" offset=".055"/><stop stop-color="#F29B19" offset=".059"/><stop stop-color="#F19B1B" offset=".063"/><stop stop-color="#F19B1C" offset=".066"/><stop stop-color="#F09A1E" offset=".07"/><stop stop-color="#F09A20" offset=".074"/><stop stop-color="#EF9A22" offset=".078"/><stop stop-color="#EF9924" offset=".082"/><stop stop-color="#EF9926" offset=".086"/><stop stop-color="#EE9928" offset=".09"/><stop stop-color="#EE982A" offset=".094"/><stop stop-color="#ED982B" offset=".098"/><stop stop-color="#ED982D" offset=".102"/><stop stop-color="#EC972F" offset=".105"/><stop stop-color="#EC9731" offset=".109"/><stop stop-color="#EB9633" offset=".113"/><stop stop-color="#EB9635" offset=".117"/><stop stop-color="#EA9637" offset=".121"/><stop stop-color="#EA9538" offset=".125"/><stop stop-color="#EA953A" offset=".129"/><stop stop-color="#E9953C" offset=".133"/><stop stop-color="#E9943E" offset=".137"/><stop stop-color="#E89440" offset=".141"/><stop stop-color="#E89442" offset=".145"/><stop stop-color="#E79344" offset=".148"/><stop stop-color="#E79346" offset=".152"/><stop stop-color="#E69347" offset=".156"/><stop stop-color="#E69249" offset=".16"/><stop stop-color="#E5924B" offset=".164"/><stop stop-color="#E5914D" offset=".168"/><stop stop-color="#E4914F" offset=".172"/><stop stop-color="#E49151" offset=".176"/><stop stop-color="#E49053" offset=".18"/><stop stop-color="#E39055" offset=".184"/><stop stop-color="#E39056" offset=".188"/><stop stop-color="#E28F58" offset=".191"/><stop stop-color="#E28F5A" offset=".195"/><stop stop-color="#E18F5C" offset=".199"/><stop stop-color="#E18E5E" offset=".203"/><stop stop-color="#E08E60" offset=".207"/><stop stop-color="#E08E62" offset=".211"/><stop stop-color="#DF8D63" offset=".215"/><stop stop-color="#DF8D65" offset=".219"/><stop stop-color="#DF8C67" offset=".223"/><stop stop-color="#DE8C69" offset=".227"/><stop stop-color="#DE8C6B" offset=".23"/><stop stop-color="#DD8B6D" offset=".234"/><stop stop-color="#DD8B6F" offset=".238"/><stop stop-color="#DC8B71" offset=".242"/><stop stop-color="#DC8A72" offset=".246"/><stop stop-color="#DB8A74" offset=".25"/><stop stop-color="#DB8A76" offset=".254"/><stop stop-color="#DA8978" offset=".258"/><stop stop-color="#DA897A" offset=".262"/><stop stop-color="#DA897C" offset=".266"/><stop stop-color="#D9887E" offset=".27"/><stop stop-color="#D98880" offset=".273"/><stop stop-color="#D88881" offset=".277"/><stop stop-color="#D88783" offset=".281"/><stop stop-color="#D78785" offset=".285"/><stop stop-color="#D78687" offset=".289"/><stop stop-color="#D68689" offset=".293"/><stop stop-color="#D6868B" offset=".297"/><stop stop-color="#D5858D" offset=".301"/><stop stop-color="#D5858F" offset=".305"/><stop stop-color="#D58590" offset=".309"/><stop stop-color="#D48492" offset=".313"/><stop stop-color="#D48494" offset=".316"/><stop stop-color="#D38496" offset=".32"/><stop stop-color="#D38398" offset=".324"/><stop stop-color="#D2839A" offset=".328"/><stop stop-color="#D2839C" offset=".332"/><stop stop-color="#D1829D" offset=".336"/><stop stop-color="#D1829F" offset=".34"/><stop stop-color="#D081A1" offset=".344"/><stop stop-color="#D081A3" offset=".348"/><stop stop-color="#D081A5" offset=".352"/><stop stop-color="#CF80A7" offset=".355"/><stop stop-color="#CF80A9" offset=".359"/><stop stop-color="#CE80AB" offset=".363"/><stop stop-color="#CE7FAC" offset=".367"/><stop stop-color="#CD7FAE" offset=".371"/><stop stop-color="#CD7FB0" offset=".375"/><stop stop-color="#CC7EB2" offset=".379"/><stop stop-color="#CC7EB4" offset=".383"/><stop stop-color="#CB7EB6" offset=".387"/><stop stop-color="#CB7DB8" offset=".391"/><stop stop-color="#CA7DBA" offset=".395"/><stop stop-color="#CA7CBB" offset=".398"/><stop stop-color="#CA7CBD" offset=".402"/><stop stop-color="#C97CBF" offset=".406"/><stop stop-color="#C97BC1" offset=".41"/><stop stop-color="#C87BC3" offset=".414"/><stop stop-color="#C87BC5" offset=".418"/><stop stop-color="#C77AC7" offset=".422"/><stop stop-color="#C77AC8" offset=".426"/><stop stop-color="#C67ACA" offset=".43"/><stop stop-color="#C679CC" offset=".434"/><stop stop-color="#C579CE" offset=".438"/><stop stop-color="#C579D0" offset=".441"/><stop stop-color="#C578D2" offset=".445"/><stop stop-color="#C478D4" offset=".449"/><stop stop-color="#C477D6" offset=".453"/><stop stop-color="#C377D7" offset=".457"/><stop stop-color="#C377D9" offset=".461"/><stop stop-color="#C276DB" offset=".465"/><stop stop-color="#C276DD" offset=".469"/><stop stop-color="#C176DF" offset=".473"/><stop stop-color="#C175E1" offset=".477"/><stop stop-color="#C075E3" offset=".48"/><stop stop-color="#C075E5" offset=".484"/><stop stop-color="#C074E6" offset=".488"/><stop stop-color="#BF74E8" offset=".492"/><stop stop-color="#BF74EA" offset=".496"/><stop stop-color="#BE73EC" offset=".5"/><stop stop-color="#BD73ED" offset=".504"/><stop stop-color="#BC72ED" offset=".508"/><stop stop-color="#BB72ED" offset=".512"/><stop stop-color="#B971ED" offset=".516"/><stop stop-color="#B871EE" offset=".52"/><stop stop-color="#B771EE" offset=".523"/><stop stop-color="#B670EE" offset=".527"/><stop stop-color="#B470EE" offset=".531"/><stop stop-color="#B36FEE" offset=".535"/><stop stop-color="#B26FEE" offset=".539"/><stop stop-color="#B06EEE" offset=".543"/><stop stop-color="#AF6EEF" offset=".547"/><stop stop-color="#AE6DEF" offset=".551"/><stop stop-color="#AC6DEF" offset=".555"/><stop stop-color="#AB6CEF" offset=".559"/><stop stop-color="#AA6CEF" offset=".563"/><stop stop-color="#A96CEF" offset=".566"/><stop stop-color="#A76BF0" offset=".57"/><stop stop-color="#A66BF0" offset=".574"/><stop stop-color="#A56AF0" offset=".578"/><stop stop-color="#A36AF0" offset=".582"/><stop stop-color="#A269F0" offset=".586"/><stop stop-color="#A169F0" offset=".59"/><stop stop-color="#A068F0" offset=".594"/><stop stop-color="#9E68F1" offset=".598"/><stop stop-color="#9D67F1" offset=".602"/><stop stop-color="#9C67F1" offset=".605"/><stop stop-color="#9A67F1" offset=".609"/><stop stop-color="#9966F1" offset=".613"/><stop stop-color="#9866F1" offset=".617"/><stop stop-color="#9665F2" offset=".621"/><stop stop-color="#9565F2" offset=".625"/><stop stop-color="#9464F2" offset=".629"/><stop stop-color="#9364F2" offset=".633"/><stop stop-color="#9163F2" offset=".637"/><stop stop-color="#9063F2" offset=".641"/><stop stop-color="#8F63F2" offset=".645"/><stop stop-color="#8D62F3" offset=".648"/><stop stop-color="#8C62F3" offset=".652"/><stop stop-color="#8B61F3" offset=".656"/><stop stop-color="#8A61F3" offset=".66"/><stop stop-color="#8860F3" offset=".664"/><stop stop-color="#8760F3" offset=".668"/><stop stop-color="#865FF3" offset=".672"/><stop stop-color="#845FF4" offset=".676"/><stop stop-color="#835EF4" offset=".68"/><stop stop-color="#825EF4" offset=".684"/><stop stop-color="#805EF4" offset=".688"/><stop stop-color="#7F5DF4" offset=".691"/><stop stop-color="#7E5DF4" offset=".695"/><stop stop-color="#7D5CF5" offset=".699"/><stop stop-color="#7B5CF5" offset=".703"/><stop stop-color="#7A5BF5" offset=".707"/><stop stop-color="#795BF5" offset=".711"/><stop stop-color="#775AF5" offset=".715"/><stop stop-color="#765AF5" offset=".719"/><stop stop-color="#755AF5" offset=".723"/><stop stop-color="#7459F6" offset=".727"/><stop stop-color="#7259F6" offset=".73"/><stop stop-color="#7158F6" offset=".734"/><stop stop-color="#7058F6" offset=".738"/><stop stop-color="#6E57F6" offset=".742"/><stop stop-color="#6D57F6" offset=".746"/><stop stop-color="#6C56F6" offset=".75"/><stop stop-color="#6A56F7" offset=".754"/><stop stop-color="#6955F7" offset=".758"/><stop stop-color="#6855F7" offset=".762"/><stop stop-color="#6755F7" offset=".766"/><stop stop-color="#6554F7" offset=".77"/><stop stop-color="#6454F7" offset=".773"/><stop stop-color="#6353F8" offset=".777"/><stop stop-color="#6153F8" offset=".781"/><stop stop-color="#6052F8" offset=".785"/><stop stop-color="#5F52F8" offset=".789"/><stop stop-color="#5E51F8" offset=".793"/><stop stop-color="#5C51F8" offset=".797"/><stop stop-color="#5B50F8" offset=".801"/><stop stop-color="#5A50F9" offset=".805"/><stop stop-color="#5850F9" offset=".809"/><stop stop-color="#574FF9" offset=".813"/><stop stop-color="#564FF9" offset=".816"/><stop stop-color="#554EF9" offset=".82"/><stop stop-color="#534EF9" offset=".824"/><stop stop-color="#524DFA" offset=".828"/><stop stop-color="#514DFA" offset=".832"/><stop stop-color="#4F4CFA" offset=".836"/><stop stop-color="#4E4CFA" offset=".84"/><stop stop-color="#4D4CFA" offset=".844"/><stop stop-color="#4B4BFA" offset=".848"/><stop stop-color="#4A4BFA" offset=".852"/><stop stop-color="#494AFB" offset=".855"/><stop stop-color="#484AFB" offset=".859"/><stop stop-color="#4649FB" offset=".863"/><stop stop-color="#4549FB" offset=".867"/><stop stop-color="#4448FB" offset=".871"/><stop stop-color="#4248FB" offset=".875"/><stop stop-color="#4147FB" offset=".879"/><stop stop-color="#4047FC" offset=".883"/><stop stop-color="#3F47FC" offset=".887"/><stop stop-color="#3D46FC" offset=".891"/><stop stop-color="#3C46FC" offset=".895"/><stop stop-color="#3B45FC" offset=".898"/><stop stop-color="#3945FC" offset=".902"/><stop stop-color="#3844FD" offset=".906"/><stop stop-color="#3744FD" offset=".91"/><stop stop-color="#3543FD" offset=".914"/><stop stop-color="#3443FD" offset=".918"/><stop stop-color="#3343FD" offset=".922"/><stop stop-color="#3242FD" offset=".926"/><stop stop-color="#3042FD" offset=".93"/><stop stop-color="#2F41FE" offset=".934"/><stop stop-color="#2E41FE" offset=".938"/><stop stop-color="#2C40FE" offset=".941"/><stop stop-color="#2B40FE" offset=".945"/><stop stop-color="#2A3FFE" offset=".949"/><stop stop-color="#293FFE" offset=".953"/><stop stop-color="#273EFE" offset=".957"/><stop stop-color="#263EFF" offset=".961"/><stop stop-color="#253EFF" offset=".965"/><stop stop-color="#233DFF" offset=".969"/><stop stop-color="#233DFF" offset="1"/></linearGradient></defs><g clip-path="url(#a)"><g clip-path="url(#b)"><path fill="url(#c)" d="M 37.636719 37.5 L 37.636719 337.378906 L 339.527344 337.378906 L 339.527344 37.5 Z M 37.636719 37.5"/></g></g></svg>